# xmcd
#
# Track frame offsets:
#	150
#	19647
#	36824
#	53458
#	70404
#	85471
#	99945
#	116519
#	134293
#	151533
#	169009
#	185433
#	208295
#	231961
#	253013
#
# Disc length: 3620 seconds
#
# Revision: 2
# Processed by: cddbd v1.5.2PL0 Copyright (c) Steve Scherf et al.
# Submitted via: audiograbber 1.83.01
#
DISCID=c00e220f
DTITLE=Various Artist - Disc B042 Sunfly Karaoke Kool Volume 32 SFKK032
DYEAR=2009
DGENRE=Karaoke
TTITLE0=The Fray - You Found Me (SF)
TTITLE1=Kelly Clarkson - My Life Would Suck Without You (SF)
TTITLE2=The All American Rejects - Gives You Hell (SF)
TTITLE3=Lily Allen - The Fear (SF)
TTITLE4=Cassie Davis - Like It Loud (SF)
TTITLE5=Lady GaGa - Eh Eh Nothing Else I Can Say (SF)
TTITLE6=U2 - Get On Your Boots (SF)
TTITLE7=Fall Out Boy - Americas Suitehearts (SF)
TTITLE8=Kanye West Feat T Pain - Heartless (SF)
TTITLE9=Britney Spears - If You Seek Amy (SF)
TTITLE10=Kings Of Leon - Revelry (SF)
TTITLE11=The Killers - Spaceman (SF)
TTITLE12=Justin Timberlake Feat TI - Dead And Gone (SF)
TTITLE13=Beyonce - Halo (SF)
TTITLE14=Taylor Swift - White Horse (SF)
EXTD=
EXTT0=
EXTT1=
EXTT2=
EXTT3=
EXTT4=
EXTT5=
EXTT6=
EXTT7=
EXTT8=
EXTT9=
EXTT10=
EXTT11=
EXTT12=
EXTT13=
EXTT14=
PLAYORDER=
